<?xml version="1.0" encoding="UTF-8" standalone="no"?>
<svg
   xmlns:dc="http://purl.org/dc/elements/1.1/"
   xmlns:cc="http://creativecommons.org/ns#"
   xmlns:rdf="http://www.w3.org/1999/02/22-rdf-syntax-ns#"
   xmlns:svg="http://www.w3.org/2000/svg"
   xmlns="http://www.w3.org/2000/svg"
   xmlns:xlink="http://www.w3.org/1999/xlink"
   version="1.1"
   id="svg2"
   viewBox="0 0 99.999997 99.999997"
   height="100"
   width="100">
  <title
     id="title4435">bug</title>
  <defs
     id="defs4">
    <linearGradient
       id="linearGradient4327">
      <stop
         id="stop4329"
         offset="0"
         style="stop-color:#800080;stop-opacity:1;" />
      <stop
         id="stop4331"
         offset="1"
         style="stop-color:#800080;stop-opacity:0;" />
    </linearGradient>
    <linearGradient
       gradientUnits="userSpaceOnUse"
       y2="987.36223"
       x2="60"
       y1="987.36223"
       x1="49.369888"
       id="linearGradient4333"
       xlink:href="#linearGradient4327" />
    <linearGradient
       y2="987.36223"
       x2="60"
       y1="987.36223"
       x1="49.369888"
       gradientUnits="userSpaceOnUse"
       id="linearGradient4393"
       xlink:href="#linearGradient4327" />
  </defs>
  <metadata
     id="metadata7">
    <rdf:RDF>
      <cc:Work
         rdf:about="">
        <dc:format>image/svg+xml</dc:format>
        <dc:type
           rdf:resource="http://purl.org/dc/dcmitype/StillImage" />
        <dc:title>bug</dc:title>
        <dc:date>2015-02-09</dc:date>
        <dc:creator>
          <cc:Agent>
            <dc:title>Thomas Girard</dc:title>
          </cc:Agent>
        </dc:creator>
        <dc:rights>
          <cc:Agent>
            <dc:title>©2015 Thomas Girard</dc:title>
          </cc:Agent>
        </dc:rights>
        <dc:source>https://github.com/vuzonp/hugo-theme-aeris/static/assets/bug-404.svg</dc:source>
        <dc:subject>
          <rdf:Bag>
            <rdf:li>bug</rdf:li>
          </rdf:Bag>
        </dc:subject>
        <cc:license
           rdf:resource="http://opensource.org/licenses/MIT" />
      </cc:Work>
    </rdf:RDF>
  </metadata>
  <g
     transform="translate(0,-952.36223)"
     id="layer1">
    <text
       id="text4438"
       y="932.36224"
       x="-15"
       style="font-style:normal;font-weight:normal;font-size:40px;line-height:125%;font-family:Sans;letter-spacing:0px;word-spacing:0px;fill:#000000;fill-opacity:1;stroke:none;stroke-width:1px;stroke-linecap:butt;stroke-linejoin:miter;stroke-opacity:1"
       xml:space="preserve"><tspan
         y="932.36224"
         x="-15"
         id="tspan4440" /></text>
    <g
       id="g4395">
      <g
         id="g4335">
        <path
           id="path4209"
           d="m 75,1012.3622 c 5,3.3333 10,6.6667 15,10 -3.416276,-1.8226 -7.07491,-3.309 -10.340588,-5.3406 -1.553137,-1.5531 -3.106275,-3.1063 -4.659412,-4.6594 z"
           style="fill:#000000;fill-rule:evenodd;stroke:none;stroke-width:1px;stroke-linecap:butt;stroke-linejoin:miter;stroke-opacity:1" />
        <path
           id="path4205"
           d="m 60,997.36223 c 5,3.33337 10,6.66667 15,9.99997 0,1.6667 0,3.3333 0,5 -5,-1.6667 -10,-3.3333 -15,-5 0,-3.3333 0,-6.6666 0,-9.99997 z"
           style="fill:#2b0011;fill-opacity:1;fill-rule:evenodd;stroke:none;stroke-width:1px;stroke-linecap:butt;stroke-linejoin:miter;stroke-opacity:1" />
        <path
           id="path4203"
           d="m 85,1002.3622 c 3.333333,0 6.666667,0 10,0 -6.666667,-1.6667 -13.333333,-3.33331 -20,-4.99997 3.333333,1.66666 6.666667,3.33327 10,4.99997 z"
           style="fill:#000000;fill-opacity:1;fill-rule:evenodd;stroke:none;stroke-width:1px;stroke-linecap:butt;stroke-linejoin:miter;stroke-opacity:1" />
        <path
           id="path4199"
           d="m 60,992.36223 c 6.666667,1.66667 13.333333,3.33333 20,5 -6.666667,0 -13.333333,0 -20,0 0,-1.66667 0,-3.33333 0,-5 z"
           style="fill:#170b28;fill-opacity:1;fill-rule:evenodd;stroke:none;stroke-width:1px;stroke-linecap:butt;stroke-linejoin:miter;stroke-opacity:1" />
        <path
           id="path4188"
           d="m 75,967.36223 c 1.666667,-1.66667 3.333333,-3.33333 5,-5 -1.666667,3.33333 -3.333333,6.66667 -5,10 0,-1.66667 0,-3.33333 0,-5 z"
           style="fill:#000000;fill-rule:evenodd;stroke:none;stroke-width:1px;stroke-linecap:butt;stroke-linejoin:miter;stroke-opacity:1" />
        <path
           id="path4186"
           d="m 75,987.36223 c 0,-6.66667 0,-13.33333 0,-20 1.666667,3.33333 3.333333,6.66667 5,10 -1.666667,3.33333 -3.333333,6.66667 -5,10 z"
           style="fill:#2b0022;fill-rule:evenodd;stroke:none;stroke-width:1px;stroke-linecap:butt;stroke-linejoin:miter;stroke-opacity:1" />
        <path
           id="path4184"
           d="m 60,987.36223 c 1.763784,-1.65814 3.36714,-3.57586 5.228473,-5.07616 4.923842,-1.64128 9.847685,-3.28256 14.771527,-4.92384 -1.666667,3.33333 -3.333333,6.66667 -5,10 -3.333333,1.66667 -6.666667,3.33333 -10,5 -1.666667,-1.66667 -3.333333,-3.33333 -5,-5 z"
           style="fill:#373748;fill-rule:evenodd;stroke:none;stroke-width:1px;stroke-linecap:butt;stroke-linejoin:miter;stroke-opacity:1" />
        <path
           id="path4150"
           d="m 65,987.36223 c 1.647027,6.74935 3.450382,13.47947 5,20.24077 0,4.9198 0,9.8395 0,14.7592 -5,6.6667 -10,13.3333 -15,20 0,-16.6667 0,-33.3333 0,-49.99997 3.333333,-1.66667 6.666667,-3.33333 10,-5 z"
           style="fill:#11002b;fill-rule:evenodd;stroke:none;stroke-width:1px;stroke-linecap:butt;stroke-linejoin:miter;stroke-opacity:1" />
        <path
           id="path4144"
           d="m 49.999999,1037.3622 c 1.666667,1.6667 3.333334,3.3333 5.000001,5 3.307778,-10.0844 6.819209,-20.1358 10,-30.2408 0,-8.2531 0,-16.50612 0,-24.75917 -5,0 -10.000001,0 -15.000001,0 0,16.66667 0,33.33327 0,49.99997 z"
           style="fill:#2b0022;fill-rule:evenodd;stroke:none;stroke-width:1px;stroke-linecap:butt;stroke-linejoin:miter;stroke-opacity:1" />
        <path
           id="path4146"
           d="m 50,972.36223 c 0,6.66667 0,13.33333 0,20 1.674358,-0.13563 3.638454,0.27012 5.133589,-0.20038 1.955471,-2.93321 3.910941,-5.86641 5.866411,-8.79962 -2,-3.66667 -4,-7.33333 -6,-11 -1.666667,0 -3.333333,0 -5,0 z"
           style="fill:#161650;fill-opacity:1;fill-rule:evenodd;stroke:none;stroke-width:1px;stroke-linecap:butt;stroke-linejoin:miter;stroke-opacity:1" />
        <path
           id="path4142"
           d="m 49.999999,997.36223 c 0.620265,5.16087 1.511303,10.31467 1.961591,15.48007 -0.653864,8.1733 -1.307727,16.3466 -1.961591,24.5199 0,-13.3333 0,-26.6666 0,-39.99997 z"
           style="fill:#000000;fill-rule:evenodd;stroke:none;stroke-width:1px;stroke-linecap:butt;stroke-linejoin:miter;stroke-opacity:1" />
        <path
           id="path4197"
           d="m 65,982.36223 c 0,1.66667 0,3.33333 0,5 -0.507147,-1.18107 -2.931866,-2.00192 -2.659412,-2.34059 0.88647,-0.88647 1.772941,-1.77294 2.659412,-2.65941 z"
           style="fill:#1c1c24;fill-rule:evenodd;stroke:none;stroke-width:1px;stroke-linecap:butt;stroke-linejoin:miter;stroke-opacity:1" />
        <path
           id="path4148"
           d="m 55,992.36223 c 1.666667,-3.33333 3.333333,-6.66667 5,-10 1.666667,1.66667 3.333333,3.33333 5,5 -3.333333,1.66667 -6.666667,3.33333 -10,5 z"
           style="fill:#440055;fill-rule:evenodd;stroke:none;stroke-width:1px;stroke-linecap:butt;stroke-linejoin:miter;stroke-opacity:1" />
        <path
           id="path4152"
           d="m 49.999999,987.36223 c 1.666667,-5 3.333334,-10 5.000001,-15 -1.09712,-3.43118 -2.18667,-6.86549 -4,-10 -0.658973,2.91886 -1.243944,5.84504 -1,8.85331 0,5.38223 -10e-7,10.76446 -10e-7,16.14669 z"
           style="fill:#000000;fill-rule:evenodd;stroke:none;stroke-width:1px;stroke-linecap:butt;stroke-linejoin:miter;stroke-opacity:1" />
        <path
           id="path4154"
           d="m 50,977.36223 c 1.749463,0.49458 2.613414,-0.57483 3.23907,-2.06512 0.306212,-1.19874 2.594818,-2.64152 1.079755,-3.61606 -1.439609,-1.4396 -2.879217,-2.87921 -4.318825,-4.31882 0,3.33333 0,6.66667 0,10 z"
           style="fill:#161650;fill-rule:evenodd;stroke:none;stroke-width:1px;stroke-linecap:butt;stroke-linejoin:miter;stroke-opacity:1" />
        <path
           id="path4201"
           d="m 80,997.36223 c 1.666667,1.66666 3.333333,3.33327 5,4.99997 -3.333333,-1.6667 -6.666667,-3.33331 -10,-4.99997 1.666667,0 3.333333,0 5,0 z"
           style="fill:#4d4d4d;fill-opacity:1;fill-rule:evenodd;stroke:none;stroke-width:1px;stroke-linecap:butt;stroke-linejoin:miter;stroke-opacity:1" />
        <path
           id="path4207"
           d="m 75,1007.3622 c 1.666667,3.3333 3.333333,6.6667 5,10 -1.666667,-1.6667 -3.333333,-3.3333 -5,-5 0,-1.6667 0,-3.3333 0,-5 z"
           style="fill:#6c5367;fill-opacity:1;fill-rule:evenodd;stroke:none;stroke-width:1px;stroke-linecap:butt;stroke-linejoin:miter;stroke-opacity:1" />
        <path
           id="path4266"
           d="m 50,987.36223 c 1.417751,-2.29397 4,-4 10,-5 l -5,10 -5,0 c 0,0 -1.417751,-2.70603 0,-5 z"
           style="fill:url(#linearGradient4333);fill-rule:evenodd;stroke:none;stroke-width:1px;stroke-linecap:butt;stroke-linejoin:miter;stroke-opacity:1;fill-opacity:1" />
      </g>
      <g
         id="g4355"
         transform="matrix(-1,0,0,1,99.999999,3e-5)">
        <path
           style="fill:#000000;fill-rule:evenodd;stroke:none;stroke-width:1px;stroke-linecap:butt;stroke-linejoin:miter;stroke-opacity:1"
           d="m 75,1012.3622 c 5,3.3333 10,6.6667 15,10 -3.416276,-1.8226 -7.07491,-3.309 -10.340588,-5.3406 -1.553137,-1.5531 -3.106275,-3.1063 -4.659412,-4.6594 z"
           id="path4357" />
        <path
           style="fill:#2b0011;fill-opacity:1;fill-rule:evenodd;stroke:none;stroke-width:1px;stroke-linecap:butt;stroke-linejoin:miter;stroke-opacity:1"
           d="m 60,997.36223 c 5,3.33337 10,6.66667 15,9.99997 0,1.6667 0,3.3333 0,5 -5,-1.6667 -10,-3.3333 -15,-5 0,-3.3333 0,-6.6666 0,-9.99997 z"
           id="path4359" />
        <path
           style="fill:#000000;fill-opacity:1;fill-rule:evenodd;stroke:none;stroke-width:1px;stroke-linecap:butt;stroke-linejoin:miter;stroke-opacity:1"
           d="m 85,1002.3622 c 3.333333,0 6.666667,0 10,0 -6.666667,-1.6667 -13.333333,-3.33331 -20,-4.99997 3.333333,1.66666 6.666667,3.33327 10,4.99997 z"
           id="path4361" />
        <path
           style="fill:#170b28;fill-opacity:1;fill-rule:evenodd;stroke:none;stroke-width:1px;stroke-linecap:butt;stroke-linejoin:miter;stroke-opacity:1"
           d="m 60,992.36223 c 6.666667,1.66667 13.333333,3.33333 20,5 -6.666667,0 -13.333333,0 -20,0 0,-1.66667 0,-3.33333 0,-5 z"
           id="path4363" />
        <path
           style="fill:#000000;fill-rule:evenodd;stroke:none;stroke-width:1px;stroke-linecap:butt;stroke-linejoin:miter;stroke-opacity:1"
           d="m 75,967.36223 c 1.666667,-1.66667 3.333333,-3.33333 5,-5 -1.666667,3.33333 -3.333333,6.66667 -5,10 0,-1.66667 0,-3.33333 0,-5 z"
           id="path4365" />
        <path
           style="fill:#2b0022;fill-rule:evenodd;stroke:none;stroke-width:1px;stroke-linecap:butt;stroke-linejoin:miter;stroke-opacity:1"
           d="m 75,987.36223 c 0,-6.66667 0,-13.33333 0,-20 1.666667,3.33333 3.333333,6.66667 5,10 -1.666667,3.33333 -3.333333,6.66667 -5,10 z"
           id="path4367" />
        <path
           style="fill:#373748;fill-rule:evenodd;stroke:none;stroke-width:1px;stroke-linecap:butt;stroke-linejoin:miter;stroke-opacity:1"
           d="m 60,987.36223 c 1.763784,-1.65814 3.36714,-3.57586 5.228473,-5.07616 4.923842,-1.64128 9.847685,-3.28256 14.771527,-4.92384 -1.666667,3.33333 -3.333333,6.66667 -5,10 -3.333333,1.66667 -6.666667,3.33333 -10,5 -1.666667,-1.66667 -3.333333,-3.33333 -5,-5 z"
           id="path4369" />
        <path
           style="fill:#11002b;fill-rule:evenodd;stroke:none;stroke-width:1px;stroke-linecap:butt;stroke-linejoin:miter;stroke-opacity:1"
           d="m 65,987.36223 c 1.647027,6.74935 3.450382,13.47947 5,20.24077 0,4.9198 0,9.8395 0,14.7592 -5,6.6667 -10,13.3333 -15,20 0,-16.6667 0,-33.3333 0,-49.99997 3.333333,-1.66667 6.666667,-3.33333 10,-5 z"
           id="path4371" />
        <path
           style="fill:#2b0022;fill-rule:evenodd;stroke:none;stroke-width:1px;stroke-linecap:butt;stroke-linejoin:miter;stroke-opacity:1"
           d="m 49.999999,1037.3622 c 1.666667,1.6667 3.333334,3.3333 5.000001,5 3.307778,-10.0844 6.819209,-20.1358 10,-30.2408 0,-8.2531 0,-16.50612 0,-24.75917 -5,0 -10.000001,0 -15.000001,0 0,16.66667 0,33.33327 0,49.99997 z"
           id="path4373" />
        <path
           style="fill:#161650;fill-opacity:1;fill-rule:evenodd;stroke:none;stroke-width:1px;stroke-linecap:butt;stroke-linejoin:miter;stroke-opacity:1"
           d="m 50,972.36223 c 0,6.66667 0,13.33333 0,20 1.674358,-0.13563 3.638454,0.27012 5.133589,-0.20038 1.955471,-2.93321 3.910941,-5.86641 5.866411,-8.79962 -2,-3.66667 -4,-7.33333 -6,-11 -1.666667,0 -3.333333,0 -5,0 z"
           id="path4375" />
        <path
           style="fill:#000000;fill-rule:evenodd;stroke:none;stroke-width:1px;stroke-linecap:butt;stroke-linejoin:miter;stroke-opacity:1"
           d="m 49.999999,997.36223 c 0.620265,5.16087 1.511303,10.31467 1.961591,15.48007 -0.653864,8.1733 -1.307727,16.3466 -1.961591,24.5199 0,-13.3333 0,-26.6666 0,-39.99997 z"
           id="path4377" />
        <path
           style="fill:#1c1c24;fill-rule:evenodd;stroke:none;stroke-width:1px;stroke-linecap:butt;stroke-linejoin:miter;stroke-opacity:1"
           d="m 65,982.36223 c 0,1.66667 0,3.33333 0,5 -0.507147,-1.18107 -2.931866,-2.00192 -2.659412,-2.34059 0.88647,-0.88647 1.772941,-1.77294 2.659412,-2.65941 z"
           id="path4379" />
        <path
           style="fill:#440055;fill-rule:evenodd;stroke:none;stroke-width:1px;stroke-linecap:butt;stroke-linejoin:miter;stroke-opacity:1"
           d="m 55,992.36223 c 1.666667,-3.33333 3.333333,-6.66667 5,-10 1.666667,1.66667 3.333333,3.33333 5,5 -3.333333,1.66667 -6.666667,3.33333 -10,5 z"
           id="path4381" />
        <path
           style="fill:#000000;fill-rule:evenodd;stroke:none;stroke-width:1px;stroke-linecap:butt;stroke-linejoin:miter;stroke-opacity:1"
           d="m 49.999999,987.36223 c 1.666667,-5 3.333334,-10 5.000001,-15 -1.09712,-3.43118 -2.18667,-6.86549 -4,-10 -0.658973,2.91886 -1.243944,5.84504 -1,8.85331 0,5.38223 -10e-7,10.76446 -10e-7,16.14669 z"
           id="path4383" />
        <path
           style="fill:#161650;fill-rule:evenodd;stroke:none;stroke-width:1px;stroke-linecap:butt;stroke-linejoin:miter;stroke-opacity:1"
           d="m 50,977.36223 c 1.749463,0.49458 2.613414,-0.57483 3.23907,-2.06512 0.306212,-1.19874 2.594818,-2.64152 1.079755,-3.61606 -1.439609,-1.4396 -2.879217,-2.87921 -4.318825,-4.31882 0,3.33333 0,6.66667 0,10 z"
           id="path4385" />
        <path
           style="fill:#4d4d4d;fill-opacity:1;fill-rule:evenodd;stroke:none;stroke-width:1px;stroke-linecap:butt;stroke-linejoin:miter;stroke-opacity:1"
           d="m 80,997.36223 c 1.666667,1.66666 3.333333,3.33327 5,4.99997 -3.333333,-1.6667 -6.666667,-3.33331 -10,-4.99997 1.666667,0 3.333333,0 5,0 z"
           id="path4387" />
        <path
           style="fill:#6c5367;fill-opacity:1;fill-rule:evenodd;stroke:none;stroke-width:1px;stroke-linecap:butt;stroke-linejoin:miter;stroke-opacity:1"
           d="m 75,1007.3622 c 1.666667,3.3333 3.333333,6.6667 5,10 -1.666667,-1.6667 -3.333333,-3.3333 -5,-5 0,-1.6667 0,-3.3333 0,-5 z"
           id="path4389" />
        <path
           style="fill:url(#linearGradient4393);fill-opacity:1;fill-rule:evenodd;stroke:none;stroke-width:1px;stroke-linecap:butt;stroke-linejoin:miter;stroke-opacity:1"
           d="m 50,987.36223 c 1.417751,-2.29397 4,-4 10,-5 l -5,10 -5,0 c 0,0 -1.417751,-2.70603 0,-5 z"
           id="path4391" />
      </g>
    </g>
  </g>
</svg>
